<?xml version="1.0" standalone="no"?>
<!DOCTYPE svg PUBLIC "-//W3C//DTD SVG 20010904//EN"
 "http://www.w3.org/TR/2001/REC-SVG-20010904/DTD/svg10.dtd">
<svg version="1.0" xmlns="http://www.w3.org/2000/svg"
 width="1184.000000pt" height="1184.000000pt" viewBox="0 0 1184.000000 1184.000000"
 preserveAspectRatio="xMidYMid meet">
<metadata>
Created by potrace 1.14, written by Peter Selinger 2001-2017
</metadata>
<g transform="translate(0.000000,1184.000000) scale(0.100000,-0.100000)"
fill="#000000" stroke="none">
<path d="M4828 9914 c-2 -1 -142 -5 -311 -7 -170 -3 -311 -7 -314 -11 -3 -3
-13 -1 -23 4 -10 5 -20 7 -23 4 -3 -3 -79 -8 -169 -10 -203 -4 -437 -12 -633
-19 -82 -4 -195 -8 -250 -10 -223 -8 -394 -16 -470 -20 -44 -3 -127 -7 -185
-10 -144 -7 -304 -16 -525 -30 -38 -3 -108 -7 -155 -10 -227 -14 -308 -22
-400 -40 -14 -3 -36 -7 -50 -10 -14 -3 -41 -10 -60 -15 -19 -6 -46 -13 -60
-16 -38 -8 -188 -68 -260 -106 -130 -67 -204 -122 -320 -238 -82 -82 -109
-114 -137 -157 -9 -15 -20 -30 -24 -33 -28 -22 -170 -323 -183 -388 -1 -9 -6
-24 -9 -32 -9 -20 -46 -184 -53 -229 -3 -20 -7 -47 -10 -61 -2 -14 -7 -45 -10
-70 -3 -24 -7 -47 -10 -51 -2 -4 -6 -27 -9 -51 -9 -86 -16 -143 -20 -158 -2
-8 -7 -39 -10 -69 -4 -30 -8 -62 -10 -72 -2 -10 -6 -46 -10 -81 -3 -35 -8 -74
-10 -88 -6 -33 -16 -115 -20 -165 -5 -58 -14 -155 -20 -195 -4 -39 -15 -148
-20 -225 -2 -27 -6 -84 -10 -125 -33 -446 -39 -641 -39 -1220 0 -514 6 -716
29 -1055 2 -38 7 -104 10 -145 6 -93 14 -197 21 -270 3 -30 7 -77 9 -105 2
-27 4 -50 5 -50 1 0 3 -16 5 -35 6 -94 16 -197 20 -210 2 -8 6 -42 10 -75 11
-116 28 -237 40 -295 3 -14 8 -41 11 -60 2 -19 9 -55 15 -80 5 -25 12 -56 15
-70 2 -14 9 -45 15 -70 6 -25 13 -58 16 -75 3 -16 9 -34 13 -40 6 -9 11 -25
25 -85 17 -69 140 -352 156 -358 5 -2 9 -8 9 -14 0 -10 68 -123 91 -152 160
-203 291 -312 492 -410 53 -26 103 -49 109 -50 7 -2 27 -8 43 -15 52 -20 59
-23 85 -27 14 -3 36 -9 50 -14 14 -4 43 -12 65 -16 22 -4 45 -8 50 -10 22 -5
202 -36 235 -40 19 -2 42 -6 50 -9 8 -2 44 -7 80 -11 36 -3 79 -8 95 -10 95
-13 287 -30 455 -39 30 -2 55 -4 55 -4 0 -4 326 -11 675 -16 532 -6 1545 -23
1545 -24 0 -1 128 -3 285 -6 582 -9 979 -17 1120 -21 342 -11 1610 -6 1610 6
0 3 57 5 128 6 122 1 388 10 557 19 44 3 127 7 185 10 58 2 143 7 190 10 158
9 295 17 355 20 33 2 103 6 155 9 198 14 239 16 480 31 41 3 100 7 130 9 74 7
234 18 295 22 28 1 50 3 50 4 0 1 23 3 50 5 64 5 116 12 135 19 8 3 29 7 45 9
88 13 228 59 335 110 202 95 367 243 501 447 20 30 46 75 58 100 13 25 31 61
41 80 54 100 169 468 195 622 3 18 13 71 21 118 9 47 18 94 19 105 2 11 7 43
11 70 4 28 8 55 9 61 2 6 6 36 9 66 4 31 9 66 12 79 3 13 7 42 9 64 2 22 6 58
9 80 3 22 8 60 11 85 5 43 9 73 20 158 3 20 7 62 10 92 3 30 7 78 10 105 3 28
7 77 10 110 11 123 17 180 22 188 2 4 -1 7 -7 7 -6 0 -8 5 -4 11 8 14 10 38
19 189 3 63 8 140 10 170 15 186 26 1058 14 1066 -3 2 -3 24 1 49 4 25 4 45 1
45 -3 0 -6 44 -7 98 -1 94 -10 282 -20 427 -3 39 -7 104 -9 145 -2 41 -4 75
-5 75 -1 0 -3 20 -5 45 -5 78 -16 223 -21 275 -2 28 -7 79 -9 115 -11 140 -14
171 -19 212 -3 24 -8 68 -11 98 -6 56 -8 70 -19 150 -3 25 -9 63 -12 85 -10
72 -15 100 -19 115 -2 8 -7 30 -10 48 -11 67 -16 89 -35 167 -12 44 -23 90
-26 102 -2 12 -9 34 -14 48 -5 14 -7 25 -4 25 4 0 2 6 -3 13 -5 6 -16 32 -23
57 -7 25 -18 51 -23 58 -5 6 -7 12 -4 12 12 0 -97 236 -148 319 -36 60 -92
139 -107 152 -10 9 -18 21 -18 26 0 9 -145 153 -205 203 -70 58 -226 148 -340
195 -22 10 -49 21 -60 25 -25 11 -90 31 -113 35 -9 2 -18 4 -19 5 -2 2 -6 3
-10 4 -43 11 -72 17 -93 21 -14 3 -38 8 -55 11 -16 4 -39 8 -50 9 -11 2 -47 8
-80 14 -89 15 -114 20 -159 26 -23 3 -57 8 -76 11 -19 3 -55 7 -80 10 -90 9
-115 12 -115 14 0 3 -111 9 -245 14 -74 3 -135 6 -135 7 0 0 -65 3 -145 5 -80
2 -197 6 -260 9 -63 3 -124 5 -135 4 -41 -1 -75 -1 -280 5 -216 6 -495 13
-950 22 -286 6 -2712 13 -2717 8z m-40 -2330 c37 -21 72 -40 77 -44 12 -9 75
-45 125 -72 19 -10 53 -29 75 -41 22 -13 67 -38 100 -57 33 -18 77 -44 97 -57
21 -12 40 -23 43 -23 2 0 26 -13 52 -29 27 -15 136 -78 243 -138 107 -61 213
-121 235 -134 22 -12 72 -40 110 -61 39 -21 77 -42 85 -48 8 -6 26 -16 40 -22
14 -7 27 -15 30 -19 5 -6 29 -19 100 -55 19 -10 51 -28 70 -39 19 -12 67 -39
105 -60 39 -21 75 -42 82 -47 7 -5 27 -17 45 -27 40 -21 359 -201 408 -230 19
-11 51 -29 70 -38 19 -10 37 -21 38 -25 2 -5 7 -8 12 -8 5 0 43 -20 84 -45 42
-25 79 -45 81 -45 3 0 24 -11 46 -26 22 -14 55 -33 72 -43 18 -9 87 -49 155
-87 68 -38 148 -82 178 -99 58 -31 58 -33 3 -63 -69 -38 -84 -47 -89 -52 -6
-5 -72 -42 -135 -74 -22 -12 -42 -23 -45 -26 -3 -3 -14 -10 -25 -16 -47 -25
-574 -324 -615 -348 -25 -15 -58 -33 -75 -42 -16 -8 -43 -24 -60 -34 -16 -11
-42 -26 -57 -32 -16 -7 -28 -16 -28 -20 0 -4 -6 -8 -14 -8 -7 0 -30 -11 -50
-25 -20 -13 -36 -22 -36 -19 0 3 -12 -3 -27 -14 -16 -10 -75 -45 -133 -78 -57
-32 -114 -65 -125 -71 -11 -7 -28 -16 -37 -19 -10 -3 -18 -11 -18 -16 0 -5 -4
-7 -9 -3 -5 3 -16 0 -23 -7 -8 -7 -29 -21 -48 -32 -55 -29 -114 -63 -260 -146
-74 -43 -155 -89 -180 -102 -25 -14 -74 -42 -110 -63 -36 -20 -94 -53 -130
-73 -36 -19 -77 -43 -92 -54 -14 -10 -28 -18 -31 -18 -4 0 -78 -41 -247 -138
-25 -14 -76 -43 -114 -64 -38 -21 -74 -42 -80 -47 -6 -5 -20 -11 -31 -15 -20
-6 -20 -1 -20 1684 0 930 4 1690 8 1690 4 0 38 -16 75 -36z"/>
</g>
</svg>
